# File created by Blade
# Date/Time:  Wed Apr 08 17:31:45 2015
#---------------------------------------------------------
:version 1.10
:name HOM
:units
  mass 1.0
  length 1.000000
  angle deg
:documentation
     Acclaim Skeleton File
:root
   axis xyz
   order TX TY TZ RX RY RZ
   position 0.000000 0.000000 0.000000
   orientation 0 0 0
:bonedata
   begin
      id 1
      name Spine_dum
      direction 0.000000 1.000000 0.000000
      length 5.893853
      axis 0.0 0.0 0.0 xyz
   end
   begin
      id 2
      name LeftUpLeg_dum
      direction 1.000000 0.000000 0.000000
      length 3.697939
      axis 0.0 0.0 0.0 xyz
   end
   begin
      id 3
      name RightUpLeg_dum
      direction -1.000000 0.000000 0.000000
      length 3.697939
      axis 0.0 0.0 0.0 xyz
   end
   begin
      id 4
      name Spine
      direction 0.000000 1.000000 0.000000
      length 0.000000
      axis 0.0 0.0 0.0 xyz
      dof rx ry rz
   end
   begin
      id 5
      name Spine_dum1
      direction 0.000000 1.000000 0.000000
      length 16.447146
      axis 0.0 0.0 0.0 xyz
   end
   begin
      id 6
      name Spine_dum2
      direction 0.000000 1.000000 0.000000
      length 10.900383
      axis 0.0 0.0 0.0 xyz
   end
   begin
      id 7
      name Spine_dum3
      direction 0.000000 1.000000 0.000000
      length 10.900383
      axis 0.0 0.0 0.0 xyz
   end
   begin
      id 8
      name Head
      direction 0.000000 1.000000 0.000000
      length 4.527550
      axis 0.0 0.0 0.0 xyz
      dof rx ry rz
   end
   begin
      id 9
      name LeftShoulder
      direction 1.000000 0.000000 0.000000
      length 8.219464
      axis 0.0 0.0 -90.0 xyz
      dof rx ry rz
   end
   begin
      id 10
      name LeftArm
      direction 1.000000 0.000000 0.000000
      length 11.094937
      axis 0.0 0.0 -90.0 xyz
      dof rx ry rz
   end
   begin
      id 11
      name LeftForeArm
      direction 1.000000 0.000000 0.000000
      length 9.103875
      axis 0.0 0.0 -90.0 xyz
      dof ry rz rx
   end
   begin
      id 12
      name LeftHand
      direction 0.000000 0.000000 0.000000
      length 0.000000
      axis 0.0 0.0 -90.0 xyz
      dof rx ry rz
   end
   begin
      id 13
      name LeftHand_dum1
      direction 0.000000 0.000000 0.000000
      length 0.000000
      axis 0.0 0.0 -90.0 xyz
   end
   begin
      id 14
      name LeftHand_dum2
      direction 1.000000 0.000000 0.000000
      length 3.937000
      axis 0.0 0.0 -90.0 xyz
   end
   begin
      id 15
      name LeftHandThumb1
      direction 0.000000 0.000000 1.000000
      length 3.937000
      axis 0.0 0.0 -90.0 xyz
      dof rx rz ry
   end
   begin
      id 16
      name RightShoulder
      direction -1.000000 0.000000 0.000000
      length 8.219464
      axis 0.0 0.0 90.0 xyz
      dof rx ry rz
   end
   begin
      id 17
      name RightArm
      direction -1.000000 0.000000 0.000000
      length 11.094937
      axis 0.0 0.0 90.0 xyz
      dof rx ry rz
   end
   begin
      id 18
      name RightForeArm
      direction -1.000000 0.000000 0.000000
      length 9.103875
      axis 0.0 0.0 90.0 xyz
      dof ry rz rx
   end
   begin
      id 19
      name RightHand
      direction 0.000000 0.000000 0.000000
      length 0.000000
      axis 0.0 0.0 90.0 xyz
      dof rx ry rz
   end
   begin
      id 20
      name RightHand_dum1
      direction 0.000000 0.000000 0.000000
      length 0.000000
      axis 0.0 0.0 90.0 xyz
   end
   begin
      id 21
      name RightHand_dum2
      direction -1.000000 0.000000 0.000000
      length 3.937000
      axis 0.0 0.0 90.0 xyz
   end
   begin
      id 22
      name RightHandThumb1
      direction 0.000000 0.000000 1.000000
      length 3.937000
      axis 0.0 0.0 90.0 xyz
      dof rx rz ry
   end
   begin
      id 23
      name LeftUpLeg
      direction 0.000000 -1.000000 0.000000
      length 16.181467
      axis 0.0 0.0 0.0 xyz
      dof rx ry rz
   end
   begin
      id 24
      name LeftLeg
      direction 0.000000 -1.000000 0.000000
      length 16.501392
      axis 0.0 0.0 0.0 xyz
      dof rx ry rz
   end
   begin
      id 25
      name LeftFoot
      direction 0.000000 -0.258819 0.965926
      length 6.408245
      axis 15.0 0.0 0.0 xyz
      dof rx ry rz
   end
   begin
      id 26
      name LeftToeBase
      direction 0.000000 0.000000 1.000000
      length 2.952750
      axis 0.0 0.0 0.0 xyz
      dof rx ry rz
   end
   begin
      id 27
      name RightUpLeg
      direction 0.000000 -1.000000 0.000000
      length 16.181467
      axis 0.0 0.0 0.0 xyz
      dof rx ry rz
   end
   begin
      id 28
      name RightLeg
      direction 0.000000 -1.000000 0.000000
      length 16.501392
      axis 0.0 0.0 0.0 xyz
      dof rx ry rz
   end
   begin
      id 29
      name RightFoot
      direction 0.000000 -0.258819 0.965926
      length 6.408245
      axis 15.0 0.0 0.0 xyz
      dof rx ry rz
   end
   begin
      id 30
      name RightToeBase
      direction 0.000000 0.000000 1.000000
      length 2.952750
      axis 0.0 0.0 0.0 xyz
      dof rx ry rz
   end
:hierarchy
   begin
      root Spine_dum LeftUpLeg_dum RightUpLeg_dum
      Spine_dum Spine
      LeftUpLeg_dum LeftUpLeg
      RightUpLeg_dum RightUpLeg
      Spine Spine_dum1 Spine_dum2 Spine_dum3
      Spine_dum1 Head
      Spine_dum2 LeftShoulder
      Spine_dum3 RightShoulder
      LeftShoulder LeftArm
      LeftArm LeftForeArm
      LeftForeArm LeftHand
      LeftHand LeftHand_dum1 LeftHand_dum2
      LeftHand_dum1 LeftHandThumb1
      RightShoulder RightArm
      RightArm RightForeArm
      RightForeArm RightHand
      RightHand RightHand_dum1 RightHand_dum2
      RightHand_dum1 RightHandThumb1
      LeftUpLeg LeftLeg
      LeftLeg LeftFoot
      LeftFoot LeftToeBase
      RightUpLeg RightLeg
      RightLeg RightFoot
      RightFoot RightToeBase
   end

# File created by Blade
# Date/Time:  Wed Apr 08 17:31:39 2015
# Frame Rate: 120.000 fps
#------------------------------------------------------
:FULLY-SPECIFIED
:DEGREES
478
root 8.113292 23.075662 -2.298131 -571.265403 -81.997252 379.643450
Spine 236.641317 0.248525 0.401293
Head 16.845980 12.808224 2.412175
LeftShoulder 14.215401 -2.878624 40.542387
LeftArm 43.929410 -15.649636 -25.368966
LeftForeArm 31.115254 -0.000000 31.177629
LeftHand -5.259521 0.000000 -3.663359
LeftHandThumb1 -26.253704 0.000000 33.147579
RightShoulder 6.611707 -31.023694 -42.930469
RightArm 57.847225 30.512876 29.772179
RightForeArm -8.624570 -0.000000 35.168109
RightHand 7.796908 -0.000000 -0.917990
RightHandThumb1 -24.326973 -0.000000 -32.862282
LeftUpLeg 125.897142 -10.860286 -8.555614
LeftLeg 100.845915 -0.000000 -0.000000
LeftFoot -35.250934 3.163954 -6.882333
LeftToeBase 4.445743 -0.000000 -0.000000
RightUpLeg 129.841775 17.100686 10.938650
RightLeg 108.220972 -0.000000 -0.000000
RightFoot -43.031933 3.043751 12.175795
RightToeBase 1.585134 -0.000000 -0.000000
479
root 8.046047 23.112795 -2.325806 -570.539004 -81.823204 379.093576
Spine 236.536360 0.290621 0.365788
Head 16.729909 12.672336 2.382669
LeftShoulder 14.248088 -2.785544 40.525021
LeftArm 43.681221 -15.696941 -25.381062
LeftForeArm 31.143509 -0.000000 31.144660
LeftHand -5.212502 -0.000000 -3.598781
LeftHandThumb1 -26.253704 0.000000 33.147579
RightShoulder 6.499271 -31.270853 -42.796887
RightArm 57.434926 30.255174 29.612773
RightForeArm -8.591333 -0.000000 35.041653
RightHand 7.592571 -0.000000 -0.696766
RightHandThumb1 -24.326973 -0.000000 -32.862282
LeftUpLeg 125.910924 -10.681463 -8.593049
LeftLeg 100.715965 -0.000000 -0.000000
LeftFoot -35.309950 3.133427 -6.902994
LeftToeBase 4.410238 -0.000000 -0.000000
RightUpLeg 129.892869 17.115946 10.933840
RightLeg 108.261713 -0.000000 -0.000000
RightFoot -42.930984 3.151955 12.346671
RightToeBase 1.338869 -0.000000 -0.000000
480
root 7.978652 23.149755 -2.353846 -570.036331 -81.655926 378.755613
Spine 236.457330 0.285238 0.337422
Head 16.607041 12.639479 2.454638
LeftShoulder 14.282448 -2.797167 40.585426
LeftArm 43.391604 -15.690191 -25.567159
LeftForeArm 31.358386 -0.000000 31.222508
LeftHand -5.191955 -0.000000 -3.371376
LeftHandThumb1 -26.253704 0.000000 33.147579
RightShoulder 6.340365 -31.510592 -42.540507
RightArm 56.980988 29.997656 29.300777
RightForeArm -8.399944 -0.000000 34.915962
RightHand 7.728266 -0.000000 -0.868084
RightHandThumb1 -24.326973 -0.000000 -32.862282
LeftUpLeg 125.951642 -10.518873 -8.616332
LeftLeg 100.579208 -0.000000 -0.000000
LeftFoot -35.366920 3.099757 -6.918137
LeftToeBase 4.365094 -0.000000 -0.000000
RightUpLeg 129.933593 17.189551 10.934286
RightLeg 108.310913 -0.000000 -0.000000
RightFoot -42.818596 3.211610 12.435482
RightToeBase 1.260204 -0.000000 -0.000000
481
root 7.913586 23.183209 -2.377328 -569.527257 -81.515786 378.376186
Spine 236.381042 0.283911 0.268702
Head 16.500176 12.499768 2.443029
LeftShoulder 14.317993 -2.703742 40.555761
LeftArm 43.149533 -15.775678 -25.640394
LeftForeArm 30.927962 0.000000 31.388554
LeftHand -5.240839 -0.000000 -3.535006
LeftHandThumb1 -26.253704 0.000000 33.147579
RightShoulder 6.209851 -31.711247 -42.367396
RightArm 56.543490 29.694492 29.095462
RightForeArm -8.433449 -0.000000 34.775560
RightHand 7.631507 -0.000000 -0.823399
RightHandThumb1 -24.326973 -0.000000 -32.862282
LeftUpLeg 126.006538 -10.376550 -8.652507
LeftLeg 100.471275 -0.000000 -0.000000
LeftFoot -35.412840 3.092616 -6.922379
LeftToeBase 4.306037 -0.000000 -0.000000
RightUpLeg 129.996103 17.254158 10.924633
RightLeg 108.352403 -0.000000 -0.000000
RightFoot -42.715329 3.296946 12.540518
RightToeBase 1.234979 -0.000000 -0.000000
